<?xml version="1.0" encoding="utf-8"?>
<!-- Svg Vector Icons : http://www.onlinewebfonts.com/icon -->
<!DOCTYPE svg PUBLIC "-//W3C//DTD SVG 1.1//EN" "http://www.w3.org/Graphics/SVG/1.1/DTD/svg11.dtd">
<svg version="1.1" xmlns="http://www.w3.org/2000/svg" xmlns:xlink="http://www.w3.org/1999/xlink" x="0px" y="0px" viewBox="0 0 1000 1000" enable-background="new 0 0 1000 1000" xml:space="preserve">
<metadata> Svg Vector Icons : http://www.onlinewebfonts.com/icon </metadata>
<g><path d="M10,752.4L164.6,394l80.8,131.3l64.4-60.6l106-217.1l74.5,68.2l55.5,101l56.8,194.4l51.8-45.4l58.1-156.5l86.5-55.5l65,95.9L990,752.4H10z"/><path d="M166.8,439.1L85.3,639.8l40.7-12.3l17-41.6l38.8-2.8v-58.7l9.5-27.4L166.8,439.1z"/><path d="M420.4,290.5l-88,178.9l-16.1,70L293.6,583l51.1,24.6l45.4-26.5l-18.9-41.7l44.5-18.9l18.9-81.4l-29.3-42.6l29.3-49.2L420.4,290.5z"/><path d="M795.3,384.2l-67.2,40.7l-47.3,139.2l32.2,34.1l44.5-5.7l18,15.1l13.3-57.7c0,0-32.2-32.2-33.1-35c-0.9-2.8,31.2-58.7,31.2-58.7L795.3,384.2z"/></g>
</svg>